<?xml version="1.0" encoding="UTF-8" standalone="no"?>
<!DOCTYPE svg PUBLIC "-//W3C//DTD SVG 1.1//EN" "http://www.w3.org/Graphics/SVG/1.1/DTD/svg11.dtd">
<svg width="100%" height="100%" viewBox="0 0 9167 9167" version="1.1" xmlns="http://www.w3.org/2000/svg" xmlns:xlink="http://www.w3.org/1999/xlink" xml:space="preserve" xmlns:serif="http://www.serif.com/" style="fill-rule:evenodd;clip-rule:evenodd;stroke-miterlimit:10;">
    <g id="background" transform="matrix(1.0038,0,0,1.29179,-334.264,-1424.7)">
        <ellipse cx="4899" cy="4650.94" rx="4566" ry="3548.06" style="fill:rgb(217,143,9);"/>
    </g>
    <g id="acorn" transform="matrix(1,0,0,1,-2314.99,0)">
        <g transform="matrix(8.33333,0,0,8.33333,9605.78,6428.49)">
            <path d="M0,-64.6C-0.254,-62.717 -0.525,-60.964 -0.758,-59.432C-3.601,-40.94 -9.572,-20.134 -22.048,-5.768C-33.889,7.873 -50.353,16.842 -67.1,23.039C-71.509,24.669 -76.597,26.931 -80.646,26.005C-85.423,24.899 -91.391,19.848 -95.388,16.983C-104.954,10.123 -113.725,0.589 -119.357,-9.844C-125.802,-21.771 -127.424,-36.056 -127.54,-49.303C-127.586,-54.302 -127.585,-59.521 -127.307,-64.739C-126.815,-73.696 -125.521,-82.657 -122.313,-90.549L-89.84,-90.82L-4.061,-91.531C-2.603,-90.153 -1.544,-88.399 -0.782,-86.407C1.592,-80.135 0.929,-71.475 0,-64.6" style="fill:rgb(145,95,54);fill-rule:nonzero;"/>
        </g>
        <g transform="matrix(8.33333,0,0,8.33333,9605.78,5710.36)">
            <path d="M0,21.576C-1.241,22.139 -2.648,22.48 -4.266,22.497C-11.508,22.582 -18.886,19.544 -26.555,19.737C-48.388,20.279 -69.798,26.22 -91.746,26.031C-102.027,25.946 -115.872,25.558 -127.307,21.437C-126.815,12.48 -125.521,3.519 -122.313,-4.373L-89.84,-4.644C-82.451,-3.13 -75.024,-1.893 -67.489,-1.486C-53.582,-0.747 -40.521,-3.017 -26.992,-3.685C-18.37,-4.111 -10.509,-1.568 -2.25,-0.38C-1.788,-0.313 -1.299,-0.272 -0.782,-0.231C1.592,6.041 0.929,14.701 0,21.576" style="fill:rgb(126,78,36);fill-rule:nonzero;"/>
        </g>
        <g transform="matrix(8.33333,0,0,8.33333,8524.47,5780.46)">
            <path d="M0,-34.486C-4.542,-11.59 2.501,1.693 25.926,-11.954C27.935,2.323 51.593,1.162 59.045,-8.59C67.191,5.337 84.892,9.836 91.607,-8.736C96.864,-1.091 116.974,5.92 121.692,-6.745C122.104,-5.104 123.174,-4.04 123.318,-1.95C136.882,5.788 144.688,-26.385 138.346,-33.571C130.376,-42.6 99.387,-31.272 90.043,-31.363C74.299,-31.517 59.919,-36.121 42.963,-35.556C31.932,-35.19 7.625,-44.322 2.782,-35.851L0,-34.486Z" style="fill:rgb(66,41,24);fill-rule:nonzero;"/>
        </g>
        <g transform="matrix(8.33333,0,0,8.33333,8710.9,5642.06)">
            <path d="M0,-45.426C-9.601,-41.384 -25.635,-29.57 -25.138,-17.893C-24.429,-1.239 -5.295,-9.376 3.686,-13.357C4.756,2.623 29.405,2.916 36.102,-8.92C45.045,-0.311 62.493,4.517 69.296,-10.139C76.819,-3.144 92.822,5.608 98.451,-8.54C108.11,1.638 115.525,-1.762 116.168,-15.476C116.837,-29.767 109.08,-33.599 98.259,-38.788C72.719,-51.034 38.927,-47.911 9.72,-48.125L0,-45.426Z" style="fill:rgb(126,78,36);fill-rule:nonzero;"/>
        </g>
        <g transform="matrix(8.33333,0,0,8.33333,8846.51,5326.92)">
            <path d="M0,7.929C-3.185,28.498 23.655,13.346 29.388,6.41C36.026,16.255 51.641,26.992 57.382,9.696C62.035,14.378 67.853,17.402 74.761,16.371C75.474,13.665 77.403,12.639 78.095,9.919C89.555,15.602 94.118,6.338 84.756,-1.354C79.185,-5.931 66.932,-8.388 59.991,-10.161C45.271,-13.921 -3.365,-20.569 -16.446,-11.256C-33.697,1.028 -16.195,15.955 0,7.929" style="fill:rgb(145,95,54);fill-rule:nonzero;"/>
        </g>
        <g transform="matrix(8.33333,0,0,8.33333,8822.97,6481.81)">
            <path d="M0,-16.132C-1.866,-15.604 -4.049,-14.557 -4.899,-12.708C-5.793,-10.765 -6.091,-8.703 -5.392,-6.626C-4.27,-3.293 -1.402,-0.604 1.771,0.802C5.356,2.389 9.242,1.271 10.553,-2.695C9.806,-0.435 11.189,-4.278 10.994,-3.807C11.146,-4.173 11.291,-4.537 11.411,-4.915C11.906,-6.47 11.795,-7.944 11.533,-9.51C11.118,-11.994 9.21,-13.842 7.459,-15.485C4.77,-18.007 0.075,-18.521 -2.586,-15.558C-3.197,-14.878 -3.806,-14.192 -4.19,-13.361C-4.499,-12.694 -4.786,-12.017 -5.053,-11.332C-5.092,-11.225 -5.132,-11.117 -5.172,-11.01C-4.904,-11.882 -4.447,-12.642 -3.801,-13.289L-0.569,-15.141C-0.626,-15.128 -0.684,-15.114 -0.74,-15.102C-5.144,-14.095 -7.764,-8.27 -5.185,-4.404C-3.8,-2.33 -2.36,-1.204 -0.055,-0.367C1.271,0.113 2.738,-0.115 4.063,-0.397C6.068,-0.824 7.253,-2.243 8.436,-3.759C9.77,-5.467 9.779,-8.963 8.486,-10.694C8.093,-11.222 7.694,-11.746 7.29,-12.268C6.813,-12.642 6.336,-13.017 5.858,-13.391C4.9,-14.06 5.442,-13.491 7.483,-11.685C6.002,-8.118 4.521,-4.553 3.04,-0.986C4.965,-1.725 6.915,-2.751 7.815,-4.746C8.226,-5.654 8.518,-6.214 8.717,-7.071C8.764,-7.296 8.814,-7.52 8.87,-7.742C9.096,-8.463 8.975,-8.172 8.506,-6.868C5.261,-6.043 2.015,-5.217 -1.23,-4.392C-0.755,-4.058 1.19,-2.553 -0.839,-4.178C-0.529,-3.931 -0.257,-3.64 0.016,-3.354C-0.779,-4.507 -1.022,-4.804 -0.712,-4.243C-1.609,-5.933 -1.265,-5.713 -1.13,-5.007C-0.923,-3.926 -1.32,-6.834 -1.193,-5.547C-1.154,-5.15 -1.132,-4.766 -1.143,-4.366C1.387,-6.263 3.915,-8.16 6.444,-10.058C6.163,-10.133 5.886,-10.221 5.612,-10.32C6.323,-9.989 6.383,-9.966 5.789,-10.249C5.528,-10.382 5.272,-10.527 5.023,-10.681C3.802,-11.403 5.855,-9.888 4.84,-10.795C4.651,-10.973 4.476,-11.16 4.312,-11.361L4.751,-10.816C4.473,-11.346 4.526,-11.215 4.914,-10.423C5.067,-9.893 5.084,-9.359 4.963,-8.82C5.267,-9.957 5.116,-10.778 4.945,-11.911C4.938,-11.002 4.933,-10.093 4.926,-9.184C5.176,-10.243 4.357,-8.347 5.086,-9.416C7.368,-12.767 3.692,-17.177 0,-16.132" style="fill:rgb(176,127,73);fill-rule:nonzero;"/>
        </g>
    </g>
    <path id="hill" d="M8416.23,7096C7596.76,8342.82 6185.5,9166.67 4583.33,9166.67C2981.17,9166.67 1569.91,8342.82 750.434,7096C750.434,7096 1649.28,5796.22 4684.33,5805.42C7369.75,5713.41 8416.23,7096 8416.23,7096" style="fill:rgb(120,68,8);"/>
    <g id="text">
        <g transform="matrix(882.48,-519.427,519.427,882.48,1770.36,7471.92)">
            <path d="M0.18,-0.086L0.18,-0.321C0.18,-0.34 0.185,-0.353 0.194,-0.36C0.2,-0.364 0.211,-0.366 0.226,-0.366L0.33,-0.366C0.34,-0.366 0.349,-0.368 0.356,-0.373C0.364,-0.378 0.368,-0.384 0.368,-0.393C0.368,-0.402 0.364,-0.408 0.357,-0.413C0.35,-0.418 0.342,-0.421 0.332,-0.421L0.22,-0.421C0.207,-0.421 0.198,-0.423 0.192,-0.427C0.184,-0.434 0.18,-0.448 0.18,-0.47L0.181,-0.671C0.181,-0.691 0.188,-0.708 0.201,-0.721C0.214,-0.733 0.229,-0.74 0.246,-0.741L0.354,-0.747C0.367,-0.748 0.377,-0.749 0.385,-0.752C0.392,-0.754 0.396,-0.759 0.397,-0.767C0.397,-0.776 0.393,-0.783 0.385,-0.788C0.377,-0.793 0.368,-0.796 0.357,-0.796L0.09,-0.796C0.062,-0.796 0.039,-0.789 0.023,-0.774C0.009,-0.762 0.002,-0.743 0.002,-0.717C0.002,-0.713 0.003,-0.682 0.003,-0.677L0.003,-0.1C0.003,-0.071 0.012,-0.046 0.03,-0.026C0.047,-0.005 0.07,0.005 0.099,0.005C0.123,0.003 0.142,-0.007 0.157,-0.023C0.172,-0.04 0.18,-0.061 0.18,-0.086Z" style="fill:rgb(41,23,2);fill-rule:nonzero;"/>
        </g>
        <g transform="matrix(938.831,-408.866,408.866,938.831,2077.68,7287.63)">
            <path d="M0.089,-0.34C0.095,-0.338 0.1,-0.337 0.106,-0.337C0.121,-0.337 0.134,-0.343 0.144,-0.355C0.155,-0.367 0.167,-0.384 0.18,-0.408C0.194,-0.432 0.205,-0.45 0.215,-0.463C0.225,-0.476 0.237,-0.484 0.251,-0.487C0.265,-0.49 0.279,-0.492 0.292,-0.492C0.331,-0.492 0.354,-0.477 0.362,-0.446C0.369,-0.421 0.372,-0.4 0.372,-0.383C0.372,-0.345 0.36,-0.321 0.335,-0.313C0.31,-0.305 0.269,-0.3 0.211,-0.298C0.153,-0.297 0.108,-0.287 0.075,-0.271C0.042,-0.254 0.022,-0.219 0.015,-0.165C0.015,-0.134 0.024,-0.105 0.043,-0.079C0.062,-0.053 0.087,-0.033 0.119,-0.018C0.15,-0.003 0.184,0.005 0.219,0.005C0.253,0.005 0.286,0.001 0.317,-0.007C0.348,-0.015 0.374,-0.028 0.395,-0.046C0.415,-0.064 0.425,-0.088 0.425,-0.117L0.425,-0.403C0.425,-0.47 0.375,-0.52 0.274,-0.554C0.259,-0.559 0.242,-0.562 0.222,-0.562C0.19,-0.562 0.157,-0.555 0.123,-0.54C0.09,-0.525 0.062,-0.508 0.04,-0.487C0.017,-0.467 0.005,-0.45 0.004,-0.435C0.004,-0.389 0.032,-0.358 0.089,-0.34ZM0.229,-0.087C0.204,-0.065 0.18,-0.054 0.156,-0.054C0.142,-0.054 0.13,-0.058 0.119,-0.065C0.08,-0.092 0.061,-0.12 0.061,-0.149C0.061,-0.181 0.08,-0.21 0.119,-0.235C0.141,-0.249 0.167,-0.256 0.198,-0.256C0.235,-0.256 0.254,-0.242 0.254,-0.215C0.261,-0.214 0.264,-0.204 0.264,-0.185C0.264,-0.167 0.261,-0.149 0.255,-0.13C0.249,-0.111 0.24,-0.097 0.229,-0.087Z" style="fill:rgb(41,23,2);fill-rule:nonzero;"/>
        </g>
        <g transform="matrix(969.801,-328.729,328.729,969.801,2501.54,7110.58)">
            <path d="M0.075,-0.793C0.05,-0.791 0.031,-0.782 0.018,-0.766C0.005,-0.75 -0.002,-0.732 -0.002,-0.711C-0.002,-0.688 0.006,-0.668 0.021,-0.652C0.036,-0.635 0.058,-0.627 0.087,-0.627C0.112,-0.629 0.131,-0.638 0.144,-0.654C0.157,-0.67 0.164,-0.688 0.164,-0.709C0.164,-0.732 0.156,-0.752 0.141,-0.768C0.126,-0.785 0.104,-0.793 0.075,-0.793ZM0.002,-0.085C0.002,-0.07 0.006,-0.056 0.014,-0.043C0.022,-0.03 0.033,-0.02 0.047,-0.012C0.061,-0.005 0.075,-0.001 0.09,-0.001C0.112,-0.002 0.131,-0.01 0.146,-0.026C0.16,-0.042 0.168,-0.061 0.168,-0.083L0.167,-0.478C0.167,-0.492 0.163,-0.505 0.156,-0.517C0.149,-0.529 0.139,-0.538 0.127,-0.544C0.115,-0.551 0.101,-0.554 0.087,-0.554C0.064,-0.554 0.045,-0.546 0.028,-0.531C0.012,-0.515 0.004,-0.496 0.004,-0.473L0.002,-0.085Z" style="fill:rgb(41,23,2);fill-rule:nonzero;"/>
        </g>
        <g transform="matrix(991.739,-255.009,255.009,991.739,2707.65,7037.92)">
            <path d="M-0.001,-0.084C-0.001,-0.068 0.003,-0.054 0.012,-0.041C0.02,-0.028 0.031,-0.018 0.045,-0.01C0.059,-0.003 0.074,0.001 0.09,0.001C0.105,0.001 0.119,-0.003 0.133,-0.011C0.146,-0.018 0.156,-0.028 0.164,-0.041C0.172,-0.053 0.176,-0.067 0.176,-0.082L0.176,-0.42C0.176,-0.434 0.18,-0.447 0.187,-0.459C0.194,-0.471 0.204,-0.481 0.217,-0.488C0.229,-0.495 0.244,-0.499 0.259,-0.499C0.288,-0.497 0.311,-0.491 0.326,-0.482C0.341,-0.473 0.352,-0.461 0.358,-0.447C0.364,-0.433 0.37,-0.413 0.374,-0.389C0.374,-0.372 0.369,-0.357 0.358,-0.346C0.348,-0.334 0.332,-0.321 0.311,-0.306C0.29,-0.291 0.274,-0.278 0.264,-0.267C0.253,-0.255 0.248,-0.241 0.248,-0.224C0.252,-0.2 0.264,-0.179 0.281,-0.163C0.299,-0.147 0.322,-0.139 0.349,-0.139C0.369,-0.142 0.385,-0.15 0.399,-0.163C0.412,-0.176 0.419,-0.191 0.419,-0.209L0.419,-0.414C0.419,-0.445 0.409,-0.472 0.388,-0.494C0.368,-0.516 0.342,-0.533 0.309,-0.544C0.277,-0.555 0.244,-0.56 0.209,-0.56C0.174,-0.56 0.141,-0.554 0.109,-0.542C0.076,-0.53 0.05,-0.512 0.03,-0.489C0.009,-0.465 -0.001,-0.437 -0.001,-0.405L-0.001,-0.084Z" style="fill:rgb(41,23,2);fill-rule:nonzero;"/>
        </g>
        <g transform="matrix(1010.28,-167.041,167.041,1010.28,3117.37,6930.09)">
            <path d="M0.219,-0.12C0.223,-0.112 0.225,-0.104 0.225,-0.096C0.225,-0.081 0.221,-0.067 0.211,-0.053C0.196,-0.029 0.182,-0.014 0.171,-0.007C0.159,0 0.145,0.004 0.129,0.004L0.108,0.004C0.089,0.004 0.071,0.008 0.052,0.015C0.019,0.029 0.002,0.052 0.002,0.085C0.002,0.097 0.005,0.11 0.009,0.125C0.015,0.142 0.025,0.154 0.04,0.163C0.054,0.172 0.07,0.177 0.087,0.177C0.115,0.177 0.135,0.167 0.146,0.147L0.443,-0.364L0.544,-0.536C0.546,-0.539 0.547,-0.543 0.547,-0.547C0.547,-0.555 0.544,-0.561 0.539,-0.565C0.535,-0.568 0.53,-0.57 0.524,-0.57C0.516,-0.57 0.51,-0.567 0.507,-0.561L0.372,-0.336C0.36,-0.315 0.347,-0.305 0.332,-0.305C0.318,-0.305 0.307,-0.313 0.297,-0.33L0.179,-0.53C0.165,-0.555 0.142,-0.567 0.11,-0.567C0.095,-0.567 0.08,-0.563 0.067,-0.555C0.055,-0.548 0.045,-0.538 0.038,-0.525C0.031,-0.512 0.027,-0.498 0.027,-0.484C0.027,-0.469 0.031,-0.456 0.037,-0.445L0.219,-0.12Z" style="fill:rgb(41,23,2);fill-rule:nonzero;"/>
        </g>
        <g transform="matrix(1020.46,-85.0596,85.0596,1020.46,3677.66,6838.98)">
            <path d="M0.176,-0.081C0.176,-0.058 0.185,-0.038 0.202,-0.021C0.22,-0.004 0.241,0.004 0.265,0.004C0.288,0.003 0.307,-0.005 0.323,-0.023C0.338,-0.04 0.346,-0.06 0.346,-0.083L0.343,-0.595L0.342,-0.69C0.342,-0.713 0.346,-0.728 0.355,-0.737C0.364,-0.744 0.378,-0.748 0.398,-0.748L0.499,-0.749C0.506,-0.749 0.511,-0.751 0.516,-0.756C0.521,-0.76 0.523,-0.765 0.523,-0.772C0.523,-0.779 0.52,-0.785 0.514,-0.791C0.508,-0.797 0.501,-0.8 0.494,-0.8L0.026,-0.798C0.019,-0.798 0.013,-0.796 0.008,-0.792C0.003,-0.789 0,-0.783 0,-0.777C0,-0.769 0.002,-0.763 0.006,-0.757C0.01,-0.752 0.015,-0.749 0.022,-0.749L0.121,-0.748C0.142,-0.748 0.157,-0.743 0.165,-0.734C0.172,-0.725 0.175,-0.709 0.175,-0.686L0.175,-0.174L0.176,-0.081Z" style="fill:rgb(41,23,2);fill-rule:nonzero;"/>
        </g>
        <g transform="matrix(1023.63,-27.3511,27.3511,1023.63,4187.27,6797.52)">
            <path d="M0.089,-0.34C0.095,-0.338 0.1,-0.337 0.106,-0.337C0.121,-0.337 0.134,-0.343 0.144,-0.355C0.155,-0.367 0.167,-0.384 0.18,-0.408C0.194,-0.432 0.205,-0.45 0.215,-0.463C0.225,-0.476 0.237,-0.484 0.251,-0.487C0.265,-0.49 0.279,-0.492 0.292,-0.492C0.331,-0.492 0.354,-0.477 0.362,-0.446C0.369,-0.421 0.372,-0.4 0.372,-0.383C0.372,-0.345 0.36,-0.321 0.335,-0.313C0.31,-0.305 0.269,-0.3 0.211,-0.298C0.153,-0.297 0.108,-0.287 0.075,-0.271C0.042,-0.254 0.022,-0.219 0.015,-0.165C0.015,-0.134 0.024,-0.105 0.043,-0.079C0.062,-0.053 0.087,-0.033 0.119,-0.018C0.15,-0.003 0.184,0.005 0.219,0.005C0.253,0.005 0.286,0.001 0.317,-0.007C0.348,-0.015 0.374,-0.028 0.395,-0.046C0.415,-0.064 0.425,-0.088 0.425,-0.117L0.425,-0.403C0.425,-0.47 0.375,-0.52 0.274,-0.554C0.259,-0.559 0.242,-0.562 0.222,-0.562C0.19,-0.562 0.157,-0.555 0.123,-0.54C0.09,-0.525 0.062,-0.508 0.04,-0.487C0.017,-0.467 0.005,-0.45 0.004,-0.435C0.004,-0.389 0.032,-0.358 0.089,-0.34ZM0.229,-0.087C0.204,-0.065 0.18,-0.054 0.156,-0.054C0.142,-0.054 0.13,-0.058 0.119,-0.065C0.08,-0.092 0.061,-0.12 0.061,-0.149C0.061,-0.181 0.08,-0.21 0.119,-0.235C0.141,-0.249 0.167,-0.256 0.198,-0.256C0.235,-0.256 0.254,-0.242 0.254,-0.215C0.261,-0.214 0.264,-0.204 0.264,-0.185C0.264,-0.167 0.261,-0.149 0.255,-0.13C0.249,-0.111 0.24,-0.097 0.229,-0.087Z" style="fill:rgb(41,23,2);fill-rule:nonzero;"/>
        </g>
        <g transform="matrix(1023.79,-20.7785,20.7785,1023.79,4722.16,6787.16)">
            <path d="M0.002,-0.07C0.002,-0.05 0.011,-0.033 0.029,-0.02C0.047,-0.007 0.067,-0.001 0.09,-0.001C0.111,-0.001 0.13,-0.008 0.146,-0.02C0.163,-0.032 0.171,-0.047 0.171,-0.066L0.171,-0.578L0.17,-0.736C0.17,-0.757 0.161,-0.774 0.143,-0.787C0.124,-0.8 0.104,-0.807 0.08,-0.807C0.059,-0.806 0.04,-0.8 0.024,-0.786C0.008,-0.773 0,-0.757 0,-0.737L0.001,-0.225L0.002,-0.07Z" style="fill:rgb(41,23,2);fill-rule:nonzero;"/>
        </g>
        <g transform="matrix(1023.34,36.7066,-36.7066,1023.34,4952.21,6780.62)">
            <path d="M0.289,-0.196C0.269,-0.194 0.255,-0.182 0.246,-0.16C0.237,-0.139 0.228,-0.117 0.219,-0.094C0.21,-0.071 0.196,-0.059 0.177,-0.056C0.158,-0.053 0.145,-0.052 0.138,-0.052C0.11,-0.052 0.086,-0.065 0.066,-0.09C0.053,-0.105 0.047,-0.126 0.047,-0.153C0.047,-0.176 0.052,-0.196 0.063,-0.213C0.073,-0.23 0.087,-0.239 0.105,-0.24L0.261,-0.25C0.287,-0.252 0.311,-0.259 0.332,-0.273C0.353,-0.286 0.37,-0.304 0.382,-0.326C0.394,-0.349 0.4,-0.373 0.401,-0.399C0.401,-0.431 0.391,-0.459 0.372,-0.482C0.352,-0.505 0.327,-0.523 0.295,-0.535C0.264,-0.547 0.232,-0.553 0.198,-0.553C0.165,-0.553 0.132,-0.547 0.101,-0.534C0.07,-0.522 0.045,-0.503 0.026,-0.48C0.007,-0.456 -0.003,-0.428 -0.003,-0.396L-0.004,-0.155C-0.004,-0.121 0.007,-0.091 0.028,-0.066C0.05,-0.04 0.078,-0.021 0.112,-0.007C0.147,0.006 0.182,0.013 0.218,0.013C0.236,0.013 0.252,0.012 0.265,0.009C0.286,0.005 0.307,-0.003 0.328,-0.016C0.349,-0.028 0.366,-0.043 0.38,-0.061C0.393,-0.079 0.4,-0.096 0.4,-0.114C0.4,-0.126 0.396,-0.138 0.389,-0.149C0.38,-0.163 0.373,-0.172 0.369,-0.178C0.364,-0.184 0.358,-0.188 0.349,-0.192C0.341,-0.195 0.329,-0.197 0.315,-0.197C0.304,-0.197 0.296,-0.197 0.289,-0.196ZM0.166,-0.315C0.164,-0.315 0.163,-0.326 0.163,-0.349C0.163,-0.379 0.167,-0.407 0.175,-0.433C0.183,-0.46 0.196,-0.477 0.216,-0.485C0.234,-0.492 0.25,-0.496 0.265,-0.496C0.285,-0.496 0.304,-0.489 0.321,-0.476C0.346,-0.457 0.358,-0.432 0.358,-0.399C0.358,-0.375 0.351,-0.353 0.338,-0.333C0.329,-0.32 0.315,-0.309 0.294,-0.302C0.273,-0.295 0.252,-0.292 0.229,-0.292C0.211,-0.292 0.196,-0.294 0.184,-0.298C0.172,-0.302 0.166,-0.308 0.166,-0.315Z" style="fill:rgb(41,23,2);fill-rule:nonzero;"/>
        </g>
        <g transform="matrix(1005.3,194.808,-194.808,1005.3,5757.79,6838.48)">
            <path d="M0,-0.098C0,-0.074 0.01,-0.052 0.03,-0.031C0.039,-0.022 0.051,-0.014 0.067,-0.009C0.082,-0.003 0.094,-0 0.101,-0L0.362,-0C0.369,-0 0.376,-0.002 0.381,-0.007C0.386,-0.012 0.389,-0.018 0.39,-0.025C0.39,-0.033 0.387,-0.04 0.382,-0.046C0.377,-0.052 0.37,-0.055 0.362,-0.055L0.261,-0.055C0.234,-0.055 0.212,-0.065 0.195,-0.084C0.178,-0.103 0.17,-0.124 0.17,-0.149L0.169,-0.661L0.168,-0.733C0.168,-0.746 0.164,-0.759 0.156,-0.77C0.148,-0.782 0.138,-0.791 0.125,-0.797C0.112,-0.804 0.098,-0.807 0.084,-0.807C0.069,-0.807 0.055,-0.804 0.043,-0.797C0.03,-0.791 0.02,-0.781 0.012,-0.77C0.004,-0.758 0,-0.745 0,-0.731L0,-0.098Z" style="fill:rgb(41,23,2);fill-rule:nonzero;"/>
        </g>
        <g transform="matrix(976.867,307.093,-307.093,976.867,6138.91,6905.47)">
            <path d="M0.002,-0.036C0,-0.031 -0.001,-0.025 -0.001,-0.019C-0.001,-0.008 0.003,-0 0.012,0.003C0.014,0.004 0.017,0.005 0.021,0.005C0.028,0.005 0.034,0.003 0.04,-0.002C0.046,-0.007 0.05,-0.013 0.052,-0.02L0.094,-0.145C0.097,-0.154 0.105,-0.162 0.119,-0.168C0.127,-0.171 0.139,-0.172 0.155,-0.172L0.317,-0.174C0.338,-0.174 0.35,-0.172 0.355,-0.169C0.358,-0.167 0.36,-0.165 0.362,-0.162C0.363,-0.159 0.365,-0.155 0.367,-0.15C0.369,-0.145 0.37,-0.142 0.371,-0.139L0.418,-0.044C0.425,-0.03 0.435,-0.02 0.448,-0.012C0.461,-0.004 0.476,-0 0.491,-0C0.503,-0 0.517,-0.003 0.53,-0.008C0.544,-0.015 0.556,-0.026 0.564,-0.039C0.572,-0.053 0.576,-0.069 0.576,-0.085C0.576,-0.097 0.574,-0.108 0.57,-0.119L0.379,-0.631L0.331,-0.758C0.326,-0.776 0.32,-0.789 0.315,-0.798C0.309,-0.807 0.3,-0.811 0.288,-0.811C0.282,-0.811 0.277,-0.809 0.273,-0.806C0.269,-0.803 0.265,-0.799 0.263,-0.793C0.26,-0.788 0.258,-0.781 0.255,-0.772C0.253,-0.764 0.251,-0.758 0.25,-0.754L0.074,-0.242L0.002,-0.036ZM0.189,-0.412C0.195,-0.428 0.2,-0.44 0.206,-0.448C0.211,-0.456 0.22,-0.46 0.232,-0.46C0.238,-0.459 0.242,-0.457 0.245,-0.453C0.249,-0.449 0.252,-0.443 0.255,-0.434C0.258,-0.425 0.26,-0.42 0.26,-0.42L0.323,-0.277C0.326,-0.271 0.327,-0.264 0.327,-0.256C0.327,-0.249 0.326,-0.243 0.323,-0.238C0.317,-0.226 0.305,-0.22 0.287,-0.22L0.165,-0.221C0.155,-0.221 0.147,-0.229 0.14,-0.244C0.137,-0.249 0.136,-0.256 0.136,-0.263C0.136,-0.272 0.138,-0.28 0.141,-0.289L0.189,-0.412Z" style="fill:rgb(41,23,2);fill-rule:nonzero;"/>
        </g>
        <g transform="matrix(924.815,439.652,-439.652,924.815,6692.38,7083.45)">
            <path d="M0.4,-0.432C0.409,-0.452 0.415,-0.465 0.417,-0.473C0.42,-0.481 0.421,-0.491 0.421,-0.503L0.42,-0.643C0.42,-0.677 0.409,-0.706 0.388,-0.729C0.367,-0.752 0.339,-0.77 0.304,-0.781C0.269,-0.792 0.231,-0.798 0.191,-0.798C0.147,-0.796 0.112,-0.788 0.083,-0.773C0.055,-0.758 0.035,-0.737 0.022,-0.712C0.009,-0.686 0.002,-0.656 0.002,-0.622L0.002,-0.134C0.002,-0.102 0.012,-0.075 0.033,-0.052C0.053,-0.03 0.08,-0.013 0.114,-0.002C0.148,0.009 0.184,0.015 0.224,0.015C0.259,0.013 0.291,0.006 0.322,-0.007C0.352,-0.02 0.377,-0.038 0.396,-0.061C0.415,-0.084 0.424,-0.111 0.424,-0.142L0.423,-0.287C0.423,-0.302 0.417,-0.324 0.405,-0.353C0.403,-0.358 0.398,-0.363 0.392,-0.368C0.385,-0.373 0.38,-0.377 0.377,-0.381C0.375,-0.384 0.373,-0.389 0.373,-0.395C0.373,-0.402 0.377,-0.409 0.385,-0.416C0.393,-0.423 0.398,-0.428 0.4,-0.432ZM0.185,-0.358C0.191,-0.365 0.201,-0.369 0.217,-0.369L0.307,-0.367C0.319,-0.367 0.332,-0.357 0.346,-0.338C0.367,-0.32 0.377,-0.302 0.377,-0.283L0.379,-0.152C0.379,-0.125 0.369,-0.101 0.35,-0.082C0.331,-0.062 0.309,-0.052 0.282,-0.052C0.254,-0.052 0.231,-0.059 0.211,-0.073C0.191,-0.087 0.181,-0.106 0.181,-0.13L0.179,-0.318C0.179,-0.338 0.181,-0.351 0.185,-0.358ZM0.181,-0.46L0.181,-0.641C0.181,-0.667 0.189,-0.689 0.206,-0.707C0.223,-0.724 0.245,-0.734 0.271,-0.735C0.299,-0.735 0.322,-0.728 0.343,-0.713C0.363,-0.699 0.373,-0.68 0.373,-0.657L0.375,-0.515C0.375,-0.495 0.369,-0.476 0.357,-0.46C0.337,-0.433 0.317,-0.419 0.295,-0.419L0.203,-0.417C0.197,-0.417 0.191,-0.421 0.186,-0.428C0.183,-0.433 0.181,-0.444 0.181,-0.46Z" style="fill:rgb(41,23,2);fill-rule:nonzero;"/>
        </g>
        <g transform="matrix(857.16,560.226,-560.226,857.16,7074.28,7263.73)">
            <path d="M0.127,-0.251C0.186,-0.251 0.231,-0.249 0.262,-0.246C0.292,-0.243 0.317,-0.234 0.335,-0.22C0.354,-0.206 0.363,-0.184 0.363,-0.153C0.359,-0.121 0.347,-0.097 0.327,-0.083C0.306,-0.068 0.281,-0.061 0.251,-0.061C0.245,-0.061 0.236,-0.062 0.224,-0.063C0.205,-0.065 0.191,-0.076 0.183,-0.096C0.174,-0.115 0.165,-0.137 0.155,-0.16C0.146,-0.184 0.132,-0.199 0.114,-0.205C0.104,-0.208 0.093,-0.21 0.082,-0.21C0.061,-0.21 0.042,-0.205 0.026,-0.196C0.009,-0.186 -0.001,-0.172 -0.004,-0.155C-0.005,-0.144 -0.006,-0.138 -0.006,-0.135C-0.006,-0.107 0.005,-0.082 0.026,-0.06C0.047,-0.039 0.075,-0.022 0.11,-0.011C0.145,0 0.182,0.006 0.221,0.006C0.249,0.004 0.277,-0.003 0.307,-0.016C0.336,-0.03 0.361,-0.046 0.38,-0.066C0.399,-0.086 0.409,-0.106 0.409,-0.127L0.408,-0.177C0.407,-0.221 0.388,-0.252 0.351,-0.271C0.314,-0.29 0.266,-0.3 0.208,-0.3C0.187,-0.3 0.167,-0.299 0.147,-0.297C0.121,-0.297 0.096,-0.304 0.072,-0.319C0.048,-0.334 0.036,-0.364 0.036,-0.41C0.037,-0.424 0.043,-0.438 0.054,-0.45C0.065,-0.463 0.08,-0.473 0.097,-0.481C0.115,-0.489 0.135,-0.493 0.156,-0.493C0.181,-0.489 0.2,-0.475 0.212,-0.452C0.225,-0.429 0.237,-0.406 0.25,-0.383C0.263,-0.36 0.283,-0.346 0.31,-0.341C0.347,-0.341 0.377,-0.358 0.401,-0.393C0.409,-0.405 0.413,-0.417 0.413,-0.428C0.413,-0.449 0.402,-0.469 0.38,-0.488C0.358,-0.508 0.331,-0.524 0.299,-0.536C0.267,-0.548 0.236,-0.555 0.208,-0.556C0.181,-0.556 0.155,-0.553 0.13,-0.546C0.105,-0.54 0.083,-0.53 0.063,-0.517C0.043,-0.505 0.027,-0.489 0.016,-0.47C0.004,-0.451 -0.002,-0.43 -0.002,-0.407L-0.001,-0.365C-0.001,-0.347 0.006,-0.33 0.018,-0.312C0.03,-0.294 0.046,-0.279 0.066,-0.268C0.086,-0.257 0.106,-0.251 0.127,-0.251Z" style="fill:rgb(41,23,2);fill-rule:nonzero;"/>
        </g>
    </g>
    <g id="notebook" transform="matrix(1,0,0,1,-2314.99,0)">
        <g transform="matrix(8.33317,-0.0522515,-0.0522515,-8.33317,8441.65,5185.51)">
            <path d="M-0.001,0.469L149.595,0.469" style="fill:none;fill-rule:nonzero;"/>
        </g>
        <g transform="matrix(8.33333,0,0,8.33333,8441.6,5173.58)">
            <path d="M0,0.963C3.109,-0.266 6.22,-1.23 9.331,-2.113C12.442,-3.009 15.554,-3.762 18.666,-4.476C24.891,-5.871 31.117,-6.965 37.346,-7.81C49.802,-9.516 62.263,-10.29 74.729,-10.39C87.195,-10.472 99.666,-9.853 112.143,-8.31C118.38,-7.545 124.62,-6.525 130.861,-5.208C133.982,-4.527 137.104,-3.811 140.226,-2.951C143.348,-2.103 146.47,-1.173 149.594,0.025C146.485,1.262 143.375,2.232 140.264,3.118C137.152,4.018 134.041,4.773 130.929,5.492C124.704,6.889 118.478,7.986 112.25,8.83C99.794,10.528 87.332,11.303 74.865,11.378C62.399,11.435 49.929,10.817 37.452,9.268C31.215,8.5 24.975,7.484 18.733,6.168C15.612,5.492 12.491,4.779 9.369,3.922C6.247,3.079 3.125,2.153 0,0.963" style="fill:rgb(41,23,2);fill-rule:nonzero;"/>
        </g>
        <g transform="matrix(3.28388,-7.65902,-7.65902,-3.28388,10184.9,5049.12)">
            <path d="M-41.314,62.664L95.05,62.664" style="fill:none;fill-rule:nonzero;stroke:black;stroke-width:18.14px;"/>
        </g>
    </g>
    <g id="squirrel" transform="matrix(1,0,0,1,-2314.99,0)">
        <g transform="matrix(8.33333,0,0,8.33333,8660.79,5031.13)">
            <path d="M0,-2.006C7.03,-2.006 -10.045,-5.022 -10.045,-5.022C-10.045,-5.022 -6.024,-9.042 -12.055,-12.053C-18.079,-15.066 -34.008,3.191 -34.008,3.191C-34.008,3.191 -7.031,11.052 -4.02,12.057C-1.004,13.06 -17.077,6.026 -17.077,6.026L-1.001,3.016C2.012,3.016 -9.043,1.005 -13.06,1.005C-17.077,1.005 -7.031,-2.006 0,-2.006" style="fill:rgb(41,23,0);fill-rule:nonzero;"/>
        </g>
        <g transform="matrix(8.33333,0,0,8.33333,6981.68,1183.17)">
            <path d="M0,481.228C41.873,455.64 83.288,500.425 83.743,525.424C58.157,462.619 0,481.228 0,481.228M106.217,412.735C112,414.244 118.514,413.709 128.832,411.722C131.057,411.295 133.128,410.661 135.06,409.868C134.485,413.809 134.062,416.935 134.062,417.594C134.062,419.063 139.999,419.136 146.399,418.311C146.977,407.26 146.977,391.862 146.977,391.862C148.354,400.283 148.743,410.638 148.006,418.086C150.071,417.775 152.14,417.375 154.026,416.904C161.477,415.042 154.372,394.145 152.904,390.059C154.297,385.561 154.634,380.999 153.934,377.029C153.934,377.029 163.53,357.096 165.007,348.979C166.267,342.052 170.192,306.149 153.924,292.067C153.171,286.693 150.192,252.332 138.428,267.773C133.418,274.352 130.018,279.982 127.743,284.304C104.258,281.214 72.384,280.483 49.528,289.36C42.997,280.079 30.042,263.832 26.766,275.844C23.721,286.995 24.16,300.58 24.736,308C13.017,323.201 12.57,338.523 16.71,351.831C18.208,372.849 17.798,415.335 -8.14,427.256C-32.821,438.607 -56.853,475.178 -36.706,511.507C-66.669,485.196 -90.593,434.758 -35.821,343.424C16.933,254.985 133.563,122.16 -22.647,22.883C-175.807,-74.45 -285.464,72.415 -303.389,128.315C-321.63,185.207 -300.564,212.153 -282.3,180.953C-280.366,177.654 -278.005,174.306 -275.333,170.997C-275.373,170.961 -275.397,170.936 -275.397,170.936C-275.397,170.936 -216.328,69.503 -113.979,90.437C-162.134,85.764 -207.555,110.992 -231.468,138.697C-213.294,131.954 -194.334,132.632 -180.479,147.951C-150.022,181.619 -164.523,214.956 -193.949,282.575C-239.922,376.306 -262.782,555.678 13.436,554.349C13.648,554.457 13.851,554.563 14.063,554.67L78.374,554.67C78.374,554.67 78.617,554.506 79.047,554.196C91.092,554.174 105.953,553.799 108.183,552.127C111.082,549.952 99.704,544.484 92.35,541.957C103.717,529.399 118.097,507.502 119.558,476.172C135.262,473.503 157.495,469.224 167.485,464.946C142.594,462.456 126.366,452.644 116.65,444.056C114.502,434.267 111.131,423.833 106.217,412.735" style="fill:rgb(41,23,0);fill-rule:nonzero;"/>
        </g>
        <g transform="matrix(0,8.33333,8.33333,0,8295.21,3721.75)">
            <path d="M21.463,-21.467C10.049,-21.467 0.795,-11.858 0.795,-0.001C0.795,11.854 10.049,21.463 21.463,21.463C32.88,21.463 42.135,11.854 42.135,-0.001C42.135,-11.858 32.88,-21.467 21.463,-21.467" style="fill:white;fill-rule:nonzero;"/>
        </g>
        <g transform="matrix(0,8.33333,8.33333,0,7600.05,3768.34)">
            <path d="M29.897,-29.899C14,-29.899 1.107,-16.514 1.107,-0.001C1.107,16.51 14,29.897 29.897,29.897C45.8,29.897 58.689,16.51 58.689,-0.001C58.689,-16.514 45.8,-29.899 29.897,-29.899" style="fill:white;fill-rule:nonzero;"/>
        </g>
        <g transform="matrix(8.33333,0,0,8.33333,8226.22,4373.27)">
            <path d="M0,-14.641C-10.108,-14.641 -22.839,-12.886 -19.911,-9.371C-16.984,-5.858 -4.102,0 -1.17,0C1.754,0 10.54,-14.641 0,-14.641" style="fill:rgb(130,80,35);fill-rule:nonzero;"/>
        </g>
        <g transform="matrix(0,8.33333,8.33333,0,7538.56,3980.57)">
            <path d="M12.549,-12.551C5.62,-12.551 -0,-6.935 -0,-0C-0,6.93 5.62,12.549 12.549,12.549C19.481,12.549 25.1,6.93 25.1,-0C25.1,-6.935 19.481,-12.551 12.549,-12.551" style="fill:rgb(130,80,35);fill-rule:nonzero;"/>
        </g>
        <g transform="matrix(0,8.33333,8.33333,0,7510.65,4038.41)">
            <path d="M5.079,-5.082C2.744,-5.082 0.847,-2.804 0.847,-0.002C0.847,2.802 2.744,5.079 5.079,5.079C7.417,5.079 9.313,2.802 9.313,-0.002C9.313,-2.804 7.417,-5.082 5.079,-5.082" style="fill:white;fill-rule:nonzero;"/>
        </g>
        <g transform="matrix(0,8.33333,8.33333,0,8240.43,3917.88)">
            <path d="M5.976,-5.975C2.677,-5.975 -0.002,-3.3 -0.002,0.001C-0.002,3.306 2.677,5.976 5.976,5.976C9.277,5.976 11.953,3.306 11.953,0.001C11.953,-3.3 9.277,-5.975 5.976,-5.975" style="fill:rgb(130,80,35);fill-rule:nonzero;"/>
        </g>
    </g>
</svg>
